# xmcd
#
# Track frame offsets: 
#        150
#        25687
#        43984
#        60884
#        78602
#        100620
#        121169
#        134007
#        157328
#
# Disc length: 2448 seconds
#
# Revision: 0
# Processed by: cddbd v1.5.2PL0 Copyright (c) Steve Scherf et al.
# Submitted via: ExactAudioCopy v0.99pb3
#
DISCID=73098e09
DTITLE=Vinnie's Vice - Feel the Vice
DYEAR=2008
DGENRE=Blues
TTITLE0=A Song For Lily
TTITLE1=Just Go Str8!
TTITLE2=Final Signal
TTITLE3=Bluestooth
TTITLE4=Gun Against My Head
TTITLE5=Well To The Bone
TTITLE6=K-B-
TTITLE7=Gotta Be Free
TTITLE8=Dare I Tell
EXTD=
EXTT0=
EXTT1=
EXTT2=
EXTT3=
EXTT4=
EXTT5=
EXTT6=
EXTT7=
EXTT8=
PLAYORDER=
